<svg xmlns="http://www.w3.org/2000/svg" width="32" height="32" viewBox="0 0 32 32">
  <g id="Group_18476" data-name="Group 18476" transform="translate(-462 -578)">
    <g id="Path_19635" data-name="Path 19635" transform="translate(462 578)" fill="#fecf16" opacity="0">
      <path d="M 31.49993896484375 31.49999809265137 L 0.4999994933605194 31.49999809265137 L 0.4999994933605194 0.4999980926513672 L 31.49993896484375 0.4999980926513672 L 31.49993896484375 31.49999809265137 Z" stroke="none"/>
      <path d="M 1 0.9999980926513672 L 1 30.99999809265137 L 30.99993896484375 30.99999809265137 L 30.99993896484375 0.9999980926513672 L 1 0.9999980926513672 M 0 -1.9073486328125e-06 L 31.99993896484375 -1.9073486328125e-06 L 31.99993896484375 31.99999809265137 L 0 31.99999809265137 L 0 -1.9073486328125e-06 Z" stroke="none" fill="#fecf16"/>
    </g>
    <path id="Icon_awesome-phone-alt" data-name="Icon awesome-phone-alt" d="M31.087,22.613l-7-3a1.5,1.5,0,0,0-1.75.431l-3.1,3.787A23.166,23.166,0,0,1,8.162,12.757l3.787-3.1a1.5,1.5,0,0,0,.431-1.75l-3-7A1.51,1.51,0,0,0,7.662.038l-6.5,1.5A1.5,1.5,0,0,0,0,3,29,29,0,0,0,29,32a1.5,1.5,0,0,0,1.462-1.162l1.5-6.5a1.518,1.518,0,0,0-.876-1.725Z" transform="translate(462 578)" fill="#fecf16"/>
  </g>
</svg>
