<svg xmlns="http://www.w3.org/2000/svg" width="36.396" height="38.745" viewBox="0 0 36.396 38.745">
  <g id="Group_132" data-name="Group 132" transform="translate(-25.574 -109.824)">
    <path id="Union_2" data-name="Union 2" d="M24.263,38.745a5.382,5.382,0,0,1-5.479-5.267V31.1a5.382,5.382,0,0,1,5.479-5.269h6.657A5.381,5.381,0,0,1,36.4,31.1v2.38a5.381,5.381,0,0,1-5.477,5.267ZM22.308,31.1v2.38a1.861,1.861,0,0,0,1.955,1.745h6.657a1.862,1.862,0,0,0,1.955-1.745V31.1a1.861,1.861,0,0,0-1.955-1.745H24.263A1.86,1.86,0,0,0,22.308,31.1ZM5.476,38.745A5.451,5.451,0,0,1,0,33.332V19.5a5.451,5.451,0,0,1,5.476-5.413h6.658A5.451,5.451,0,0,1,17.611,19.5v13.83a5.451,5.451,0,0,1-5.477,5.413ZM3.522,19.5v13.83a1.926,1.926,0,0,0,1.954,1.891h6.658a1.926,1.926,0,0,0,1.955-1.891V19.5a1.926,1.926,0,0,0-1.955-1.891H5.476A1.926,1.926,0,0,0,3.522,19.5Zm20.741,5.154a5.452,5.452,0,0,1-5.479-5.415V5.413A5.452,5.452,0,0,1,24.263,0h6.657A5.451,5.451,0,0,1,36.4,5.413V19.241a5.451,5.451,0,0,1-5.477,5.415ZM22.308,5.413V19.241a1.925,1.925,0,0,0,1.955,1.891h6.657a1.926,1.926,0,0,0,1.955-1.891V5.413a1.927,1.927,0,0,0-1.955-1.891H24.263A1.926,1.926,0,0,0,22.308,5.413Zm-16.832,7.5A5.38,5.38,0,0,1,0,7.646V5.267A5.381,5.381,0,0,1,5.476,0h6.658a5.381,5.381,0,0,1,5.477,5.267V7.646a5.381,5.381,0,0,1-5.477,5.267ZM3.522,5.267V7.646A1.861,1.861,0,0,0,5.476,9.392h6.658a1.861,1.861,0,0,0,1.955-1.745V5.267a1.861,1.861,0,0,0-1.955-1.745H5.476A1.861,1.861,0,0,0,3.522,5.267Z" transform="translate(25.574 109.824)" fill="#0955a0"/>
  </g>
</svg>
