<svg xmlns="http://www.w3.org/2000/svg" width="14" height="14" viewBox="0 0 14 14">
  <path id="download_1_" data-name="download (1)" d="M61.9,55.4a7,7,0,1,1-7,7A6.987,6.987,0,0,1,61.9,55.4Zm.978,10.387a1,1,0,0,0-.978-.978.94.94,0,0,0-.941.978.964.964,0,0,0,.978.941A.909.909,0,0,0,62.878,65.787Zm-1.844-7.226a1.112,1.112,0,0,0-.075.489c.038.489.075.978.075,1.43l.113,2.258c0,.226.038.452.038.715a.716.716,0,0,0,1.43.038c.075-1.167.113-2.333.188-3.5a7.923,7.923,0,0,1,.075-.941.95.95,0,0,0-.715-1.016A.989.989,0,0,0,61.034,58.561Z" transform="translate(-54.9 -55.4)" fill="#e9820a"/>
</svg>
