<svg xmlns="http://www.w3.org/2000/svg" width="17.23" height="22.973" viewBox="0 0 17.23 22.973">
  <path id="Icon_awesome-file-invoice-dollar" data-name="Icon awesome-file-invoice-dollar" d="M16.916,4.711,12.523.314A1.076,1.076,0,0,0,11.76,0h-.274V5.743H17.23V5.47A1.073,1.073,0,0,0,16.916,4.711ZM10.051,6.1V0H1.077A1.074,1.074,0,0,0,0,1.077V21.9a1.074,1.074,0,0,0,1.077,1.077H16.153A1.074,1.074,0,0,0,17.23,21.9V7.179h-6.1A1.08,1.08,0,0,1,10.051,6.1ZM2.872,3.231a.359.359,0,0,1,.359-.359H6.82a.359.359,0,0,1,.359.359v.718a.359.359,0,0,1-.359.359H3.231a.359.359,0,0,1-.359-.359Zm0,3.59V6.1a.359.359,0,0,1,.359-.359H6.82a.359.359,0,0,1,.359.359V6.82a.359.359,0,0,1-.359.359H3.231A.359.359,0,0,1,2.872,6.82ZM9.333,18.66v1.082a.359.359,0,0,1-.359.359H8.256a.359.359,0,0,1-.359-.359v-1.09a2.569,2.569,0,0,1-1.408-.509.359.359,0,0,1-.026-.545l.527-.5a.368.368,0,0,1,.455-.033,1.08,1.08,0,0,0,.575.167H9.282a.564.564,0,0,0,.529-.592.586.586,0,0,0-.394-.571L7.4,15.461a2.031,2.031,0,0,1-1.417-1.947A2,2,0,0,1,7.9,11.492V10.41a.359.359,0,0,1,.359-.359h.718a.359.359,0,0,1,.359.359V11.5a2.566,2.566,0,0,1,1.408.509.359.359,0,0,1,.026.545l-.527.5a.368.368,0,0,1-.455.033,1.076,1.076,0,0,0-.575-.167H7.947a.564.564,0,0,0-.529.592.586.586,0,0,0,.393.571l2.019.606a2.031,2.031,0,0,1,1.417,1.947A2,2,0,0,1,9.333,18.66Z" fill="#06a74c"/>
</svg>
