<svg xmlns="http://www.w3.org/2000/svg" width="32.026" height="21.685" viewBox="0 0 32.026 21.685">
  <path id="Icon_zocial-email" data-name="Icon zocial-email" d="M.072,23.832V5.989q0-.031.093-.589l10.469,8.984L.2,24.452a2.633,2.633,0,0,1-.124-.62ZM1.462,4.161a1.327,1.327,0,0,1,.525-.093h28.2a1.744,1.744,0,0,1,.556.093l-10.5,9.015-1.39,1.115L16.1,16.552l-2.749-2.261-1.39-1.115Zm.031,21.5L12.024,15.53,16.1,18.845l4.077-3.315L30.708,25.66a1.479,1.479,0,0,1-.525.093H1.987a1.4,1.4,0,0,1-.494-.093ZM21.567,14.384,32.005,5.4a1.854,1.854,0,0,1,.093.589V23.832a2.381,2.381,0,0,1-.093.62Z" transform="translate(-0.072 -4.068)" fill="#fecf16"/>
</svg>
