<svg id="Group_18066" data-name="Group 18066" xmlns="http://www.w3.org/2000/svg" width="27" height="27" viewBox="0 0 27 27">
  <rect id="Rectangle_17443" data-name="Rectangle 17443" width="27" height="27" fill="#fff"/>
  <path id="Icon_awesome-plane-departure" data-name="Icon awesome-plane-departure" d="M23.264,17.759H.6a.6.6,0,0,0-.6.6v1.193a.6.6,0,0,0,.6.6H23.264a.6.6,0,0,0,.6-.6V18.356A.6.6,0,0,0,23.264,17.759ZM3,13.78a1.23,1.23,0,0,0,.907.4l4.867-.007a2.446,2.446,0,0,0,1.105-.265L20.73,8.4a6.338,6.338,0,0,0,2.5-2.174c.683-1.062.757-1.83.487-2.373s-.922-.942-2.172-1.023a6.262,6.262,0,0,0-3.217.726L14.654,5.422,6.5,2.363a.664.664,0,0,0-.671-.041L3.378,3.565a.681.681,0,0,0-.193,1.064L9.01,8.287,5.162,10.239l-2.7-1.36a.664.664,0,0,0-.6,0l-1.5.759a.682.682,0,0,0-.208,1.047Z" transform="translate(1.509 2.303)" fill="#dbb313"/>
</svg>
