<svg xmlns="http://www.w3.org/2000/svg" width="22.501" height="24.5" viewBox="0 0 22.501 24.5">
  <path id="Vector" d="M10,2.5C6.325,2.5,3.346,6,3.346,10.312A7.216,7.216,0,0,1,1.47,15.681c-.241.223-.461.411-.643.57-.743.579-1.708,2.606.743,2.606H7.143M10,2.5c3.675,0,6.654,3.5,6.654,7.812a7.216,7.216,0,0,0,1.876,5.369c.241.223.461.411.643.57.743.579,1.708,2.606-.743,2.606H12.857M10,2.5V0M7.143,18.857h5.714m-5.714,0A3.01,3.01,0,0,0,10,22a3.01,3.01,0,0,0,2.857-3.143" transform="translate(1.25 1.25)" fill="none" stroke="#fff" stroke-linecap="round" stroke-linejoin="round" stroke-width="2.5"/>
</svg>
